<?xml version="1.0" encoding="UTF-8" standalone="no"?>
<!DOCTYPE svg PUBLIC "-//W3C//DTD SVG 1.1//EN"
 "http://www.w3.org/Graphics/SVG/1.1/DTD/svg11.dtd">
<!-- Generated by graphviz version 2.26.3 (20100126.1600)
 -->
<!-- Title: _anonymous_0 Pages: 1 -->
<svg width="148pt" height="202pt"
 viewBox="0.00 0.00 148.00 202.00" xmlns="http://www.w3.org/2000/svg" xmlns:xlink="http://www.w3.org/1999/xlink">
<g id="graph1" class="graph" transform="scale(1 1) rotate(0) translate(4 198)">
<title>_anonymous_0</title>
<polygon fill="white" stroke="white" points="-4,5 -4,-198 145,-198 145,5 -4,5"/>
<text text-anchor="middle" x="70" y="-177.4" font-family="Times Roman,serif" font-size="14.00">MyString</text>
<!-- 1 -->
<g id="node1" class="node"><title>1</title>
<polygon fill="#fff7fb" stroke="black" points="140,-44 7.10543e-14,-44 0,-2.13163e-14 140,-7.10543e-15 140,-44"/>
<text text-anchor="middle" x="70" y="-27.4" font-family="Times Roman,serif" font-size="14.00">Laron Harris DVM</text>
<text text-anchor="middle" x="70" y="-9.4" font-family="Times Roman,serif" font-size="14.00">Brandy King</text>
</g>
<!-- 2 -->
<g id="node2" class="node"><title>2</title>
<polygon fill="#fff7fb" stroke="black" points="136,-106 4,-106 4,-62 136,-62 136,-106"/>
<text text-anchor="middle" x="70" y="-89.4" font-family="Times Roman,serif" font-size="14.00">Ramona McClure</text>
<text text-anchor="middle" x="70" y="-71.4" font-family="Times Roman,serif" font-size="14.00">Ethel Fahey</text>
</g>
<!-- 3 -->
<g id="node3" class="node"><title>3</title>
<polygon fill="#ece7f2" stroke="black" points="97,-168 43,-168 43,-124 97,-124 97,-168"/>
<text text-anchor="middle" x="70" y="-151.4" font-family="Times Roman,serif" font-size="14.00">&#45;&#45;&#45;&#45;</text>
<text text-anchor="middle" x="70" y="-133.4" font-family="Times Roman,serif" font-size="14.00">&#45;&#45;&#45;&#45;</text>
</g>
</g>
</svg>
