<?xml version="1.0" encoding="UTF-8" standalone="no"?>
<!DOCTYPE svg PUBLIC "-//W3C//DTD SVG 1.1//EN"
 "http://www.w3.org/Graphics/SVG/1.1/DTD/svg11.dtd">
<!-- Generated by graphviz version 2.26.3 (20100126.1600)
 -->
<!-- Title: _anonymous_0 Pages: 1 -->
<svg width="896pt" height="512pt"
 viewBox="0.00 0.00 896.00 512.00" xmlns="http://www.w3.org/2000/svg" xmlns:xlink="http://www.w3.org/1999/xlink">
<g id="graph1" class="graph" transform="scale(1 1) rotate(0) translate(4 508)">
<title>_anonymous_0</title>
<polygon fill="white" stroke="white" points="-4,5 -4,-508 893,-508 893,5 -4,5"/>
<text text-anchor="middle" x="444" y="-487.4" font-family="Times Roman,serif" font-size="14.00">AI Sumo</text>
<!-- 1174 -->
<g id="node1" class="node"><title>1174</title>
<polygon fill="#fff7fb" stroke="black" points="139,-478 11,-478 11,-434 139,-434 139,-478"/>
<text text-anchor="middle" x="75" y="-461.4" font-family="Times Roman,serif" font-size="14.00">Laila Morissette</text>
<text text-anchor="middle" x="75" y="-443.4" font-family="Times Roman,serif" font-size="14.00">Marisa Boehm II</text>
</g>
<!-- 1182 -->
<g id="node2" class="node"><title>1182</title>
<polygon fill="#ece7f2" stroke="black" points="323,-478 199,-478 199,-434 323,-434 323,-478"/>
<text text-anchor="middle" x="261" y="-461.4" font-family="Times Roman,serif" font-size="14.00">Amely Parisian</text>
<text text-anchor="middle" x="261" y="-443.4" font-family="Times Roman,serif" font-size="14.00">Laila Morissette</text>
</g>
<!-- 1174&#45;&gt;1182 -->
<g id="edge2" class="edge"><title>1174&#45;&gt;1182</title>
<path fill="none" stroke="black" stroke-width="2" d="M139.011,-456C158.241,-456 179.309,-456 198.444,-456"/>
</g>
<!-- 1185 -->
<g id="node13" class="node"><title>1185</title>
<polygon fill="#d0d1e6" stroke="black" points="508,-416 384,-416 384,-372 508,-372 508,-416"/>
<text text-anchor="middle" x="446" y="-399.4" font-family="Times Roman,serif" font-size="14.00">Laila Morissette</text>
<text text-anchor="middle" x="446" y="-381.4" font-family="Times Roman,serif" font-size="14.00">Eryn Wuckert</text>
</g>
<!-- 1182&#45;&gt;1185 -->
<g id="edge18" class="edge"><title>1182&#45;&gt;1185</title>
<path fill="none" stroke="black" stroke-width="2" d="M323.633,-435.01C342.92,-428.546 364.149,-421.431 383.432,-414.969"/>
</g>
<!-- 1175 -->
<g id="node3" class="node"><title>1175</title>
<polygon fill="#fff7fb" stroke="black" points="149,-106 1,-106 1,-62 149,-62 149,-106"/>
<text text-anchor="middle" x="75" y="-89.4" font-family="Times Roman,serif" font-size="14.00">Mariela Kling</text>
<text text-anchor="middle" x="75" y="-71.4" font-family="Times Roman,serif" font-size="14.00">Fatima Stiedemann</text>
</g>
<!-- 1183 -->
<g id="node4" class="node"><title>1183</title>
<polygon fill="#ece7f2" stroke="black" points="335,-106 187,-106 187,-62 335,-62 335,-106"/>
<text text-anchor="middle" x="261" y="-89.4" font-family="Times Roman,serif" font-size="14.00">Adrianna Lemke</text>
<text text-anchor="middle" x="261" y="-71.4" font-family="Times Roman,serif" font-size="14.00">Fatima Stiedemann</text>
</g>
<!-- 1175&#45;&gt;1183 -->
<g id="edge4" class="edge"><title>1175&#45;&gt;1183</title>
<path fill="none" stroke="black" stroke-width="2" d="M149.582,-84C161.71,-84 174.273,-84 186.402,-84"/>
</g>
<!-- 1187 -->
<g id="node6" class="node"><title>1187</title>
<polygon fill="#d0d1e6" stroke="black" points="519,-106 373,-106 373,-62 519,-62 519,-106"/>
<text text-anchor="middle" x="446" y="-89.4" font-family="Times Roman,serif" font-size="14.00">Adrianna Lemke</text>
<text text-anchor="middle" x="446" y="-71.4" font-family="Times Roman,serif" font-size="14.00">Meggie Vandervort</text>
</g>
<!-- 1183&#45;&gt;1187 -->
<g id="edge20" class="edge"><title>1183&#45;&gt;1187</title>
<path fill="none" stroke="black" stroke-width="2" d="M335.713,-84C347.747,-84 360.198,-84 372.21,-84"/>
</g>
<!-- 1176 -->
<g id="node5" class="node"><title>1176</title>
<polygon fill="#ece7f2" stroke="black" points="334,-44 188,-44 188,-2.13163e-14 334,-7.10543e-15 334,-44"/>
<text text-anchor="middle" x="261" y="-27.4" font-family="Times Roman,serif" font-size="14.00">Meggie Vandervort</text>
<text text-anchor="middle" x="261" y="-9.4" font-family="Times Roman,serif" font-size="14.00">Talia Lynch</text>
</g>
<!-- 1176&#45;&gt;1187 -->
<g id="edge6" class="edge"><title>1176&#45;&gt;1187</title>
<path fill="none" stroke="black" stroke-width="2" d="M326.745,-44.0335C344.089,-49.846 362.806,-56.1188 380.155,-61.9331"/>
</g>
<!-- 1189 -->
<g id="node16" class="node"><title>1189</title>
<polygon fill="#a6bddb" stroke="black" points="703,-199 557,-199 557,-155 703,-155 703,-199"/>
<text text-anchor="middle" x="630" y="-182.4" font-family="Times Roman,serif" font-size="14.00">Wallace Pouros</text>
<text text-anchor="middle" x="630" y="-164.4" font-family="Times Roman,serif" font-size="14.00">Meggie Vandervort</text>
</g>
<!-- 1187&#45;&gt;1189 -->
<g id="edge28" class="edge"><title>1187&#45;&gt;1189</title>
<path fill="none" stroke="black" stroke-width="2" d="M489.605,-106.04C518.83,-120.811 557.163,-140.186 586.389,-154.958"/>
</g>
<!-- 1177 -->
<g id="node7" class="node"><title>1177</title>
<polygon fill="#ece7f2" stroke="black" points="326,-354 196,-354 196,-310 326,-310 326,-354"/>
<text text-anchor="middle" x="261" y="-337.4" font-family="Times Roman,serif" font-size="14.00">Dante Eichmann</text>
<text text-anchor="middle" x="261" y="-319.4" font-family="Times Roman,serif" font-size="14.00">Dr. Orval Legros</text>
</g>
<!-- 1184 -->
<g id="node8" class="node"><title>1184</title>
<polygon fill="#d0d1e6" stroke="black" points="511,-323 381,-323 381,-279 511,-279 511,-323"/>
<text text-anchor="middle" x="446" y="-306.4" font-family="Times Roman,serif" font-size="14.00">Foo User</text>
<text text-anchor="middle" x="446" y="-288.4" font-family="Times Roman,serif" font-size="14.00">Dante Eichmann</text>
</g>
<!-- 1177&#45;&gt;1184 -->
<g id="edge8" class="edge"><title>1177&#45;&gt;1184</title>
<path fill="none" stroke="black" stroke-width="2" d="M326.745,-320.983C344.193,-318.06 363.03,-314.903 380.467,-311.981"/>
</g>
<!-- 1188 -->
<g id="node15" class="node"><title>1188</title>
<polygon fill="#a6bddb" stroke="black" points="695,-323 565,-323 565,-279 695,-279 695,-323"/>
<text text-anchor="middle" x="630" y="-306.4" font-family="Times Roman,serif" font-size="14.00">Dante Eichmann</text>
<text text-anchor="middle" x="630" y="-288.4" font-family="Times Roman,serif" font-size="14.00">Laila Morissette</text>
</g>
<!-- 1184&#45;&gt;1188 -->
<g id="edge22" class="edge"><title>1184&#45;&gt;1188</title>
<path fill="none" stroke="black" stroke-width="2" d="M511.649,-301C528.781,-301 547.245,-301 564.376,-301"/>
</g>
<!-- 1178 -->
<g id="node9" class="node"><title>1178</title>
<polygon fill="#ece7f2" stroke="black" points="322,-230 200,-230 200,-186 322,-186 322,-230"/>
<text text-anchor="middle" x="261" y="-213.4" font-family="Times Roman,serif" font-size="14.00">Clint Rodriguez</text>
<text text-anchor="middle" x="261" y="-195.4" font-family="Times Roman,serif" font-size="14.00">Harrison Bruen</text>
</g>
<!-- 1186 -->
<g id="node10" class="node"><title>1186</title>
<polygon fill="#d0d1e6" stroke="black" points="507,-199 385,-199 385,-155 507,-155 507,-199"/>
<text text-anchor="middle" x="446" y="-182.4" font-family="Times Roman,serif" font-size="14.00">Harrison Bruen</text>
<text text-anchor="middle" x="446" y="-164.4" font-family="Times Roman,serif" font-size="14.00">Wallace Pouros</text>
</g>
<!-- 1178&#45;&gt;1186 -->
<g id="edge10" class="edge"><title>1178&#45;&gt;1186</title>
<path fill="none" stroke="black" stroke-width="2" d="M322.089,-197.764C342.296,-194.377 364.773,-190.611 384.976,-187.226"/>
</g>
<!-- 1186&#45;&gt;1189 -->
<g id="edge26" class="edge"><title>1186&#45;&gt;1189</title>
<path fill="none" stroke="black" stroke-width="2" d="M507.014,-177C522.81,-177 539.986,-177 556.354,-177"/>
</g>
<!-- 1179 -->
<g id="node11" class="node"><title>1179</title>
<polygon fill="#ece7f2" stroke="black" points="319,-292 203,-292 203,-248 319,-248 319,-292"/>
<text text-anchor="middle" x="261" y="-275.4" font-family="Times Roman,serif" font-size="14.00">Foo User</text>
<text text-anchor="middle" x="261" y="-257.4" font-family="Times Roman,serif" font-size="14.00">Kaela Langosh</text>
</g>
<!-- 1179&#45;&gt;1184 -->
<g id="edge12" class="edge"><title>1179&#45;&gt;1184</title>
<path fill="none" stroke="black" stroke-width="2" d="M319.028,-279.724C338.525,-282.991 360.408,-286.657 380.442,-290.015"/>
</g>
<!-- 1180 -->
<g id="node12" class="node"><title>1180</title>
<polygon fill="#ece7f2" stroke="black" points="316,-416 206,-416 206,-372 316,-372 316,-416"/>
<text text-anchor="middle" x="261" y="-399.4" font-family="Times Roman,serif" font-size="14.00">Eryn Wuckert</text>
<text text-anchor="middle" x="261" y="-381.4" font-family="Times Roman,serif" font-size="14.00">First User</text>
</g>
<!-- 1180&#45;&gt;1185 -->
<g id="edge14" class="edge"><title>1180&#45;&gt;1185</title>
<path fill="none" stroke="black" stroke-width="2" d="M316.506,-394C337.58,-394 361.72,-394 383.404,-394"/>
</g>
<!-- 1185&#45;&gt;1188 -->
<g id="edge24" class="edge"><title>1185&#45;&gt;1188</title>
<path fill="none" stroke="black" stroke-width="2" d="M489.605,-371.96C518.83,-357.189 557.163,-337.814 586.389,-323.042"/>
</g>
<!-- 1181 -->
<g id="node14" class="node"><title>1181</title>
<polygon fill="#ece7f2" stroke="black" points="335,-168 187,-168 187,-124 335,-124 335,-168"/>
<text text-anchor="middle" x="261" y="-151.4" font-family="Times Roman,serif" font-size="14.00">Wallace Pouros</text>
<text text-anchor="middle" x="261" y="-133.4" font-family="Times Roman,serif" font-size="14.00">Timmy Flatley DDS</text>
</g>
<!-- 1181&#45;&gt;1186 -->
<g id="edge16" class="edge"><title>1181&#45;&gt;1186</title>
<path fill="none" stroke="black" stroke-width="2" d="M335.713,-158.52C352.059,-161.259 369.175,-164.127 384.914,-166.764"/>
</g>
<!-- 1190 -->
<g id="node17" class="node"><title>1190</title>
<polygon fill="#74a9cf" stroke="black" points="887,-261 741,-261 741,-217 887,-217 887,-261"/>
<text text-anchor="middle" x="814" y="-244.4" font-family="Times Roman,serif" font-size="14.00">Laila Morissette</text>
<text text-anchor="middle" x="814" y="-226.4" font-family="Times Roman,serif" font-size="14.00">Meggie Vandervort</text>
</g>
<!-- 1188&#45;&gt;1190 -->
<g id="edge30" class="edge"><title>1188&#45;&gt;1190</title>
<path fill="none" stroke="black" stroke-width="2" d="M695.39,-278.967C712.64,-273.154 731.256,-266.881 748.511,-261.067"/>
</g>
<!-- 1189&#45;&gt;1190 -->
<g id="edge32" class="edge"><title>1189&#45;&gt;1190</title>
<path fill="none" stroke="black" stroke-width="2" d="M695.39,-199.033C712.64,-204.846 731.256,-211.119 748.511,-216.933"/>
</g>
</g>
</svg>
