<?xml version="1.0" encoding="UTF-8" standalone="no"?>
<!DOCTYPE svg PUBLIC "-//W3C//DTD SVG 1.1//EN"
 "http://www.w3.org/Graphics/SVG/1.1/DTD/svg11.dtd">
<!-- Generated by graphviz version 2.26.3 (20100126.1600)
 -->
<!-- Title: _anonymous_0 Pages: 1 -->
<svg width="676pt" height="512pt"
 viewBox="0.00 0.00 676.00 512.00" xmlns="http://www.w3.org/2000/svg" xmlns:xlink="http://www.w3.org/1999/xlink">
<g id="graph1" class="graph" transform="scale(1 1) rotate(0) translate(4 508)">
<title>_anonymous_0</title>
<polygon fill="white" stroke="white" points="-4,5 -4,-508 673,-508 673,5 -4,5"/>
<text text-anchor="middle" x="334" y="-487.4" font-family="Times Roman,serif" font-size="14.00">AI Sumo 2</text>
<!-- 1239 -->
<g id="node1" class="node"><title>1239</title>
<polygon fill="#fff7fb" stroke="black" points="139,-478 11,-478 11,-434 139,-434 139,-478"/>
<text text-anchor="middle" x="75" y="-461.4" font-family="Times Roman,serif" font-size="14.00">Mariela Kling</text>
<text text-anchor="middle" x="75" y="-443.4" font-family="Times Roman,serif" font-size="14.00">Dr. Orval Legros</text>
</g>
<!-- 1248 -->
<g id="node2" class="node"><title>1248</title>
<polygon fill="#ece7f2" stroke="black" points="325,-416 197,-416 197,-372 325,-372 325,-416"/>
<text text-anchor="middle" x="261" y="-399.4" font-family="Times Roman,serif" font-size="14.00">Dr. Orval Legros</text>
<text text-anchor="middle" x="261" y="-381.4" font-family="Times Roman,serif" font-size="14.00">Amely Parisian</text>
</g>
<!-- 1239&#45;&gt;1248 -->
<g id="edge2" class="edge"><title>1239&#45;&gt;1248</title>
<path fill="none" stroke="black" stroke-width="2" d="M139.532,-434.489C157.894,-428.369 177.894,-421.702 196.267,-415.578"/>
</g>
<!-- 1251 -->
<g id="node13" class="node"><title>1251</title>
<polygon fill="#d0d1e6" stroke="black" points="501,-323 373,-323 373,-279 501,-279 501,-323"/>
<text text-anchor="middle" x="437" y="-306.4" font-family="Times Roman,serif" font-size="14.00">First User</text>
<text text-anchor="middle" x="437" y="-288.4" font-family="Times Roman,serif" font-size="14.00">Dr. Orval Legros</text>
</g>
<!-- 1248&#45;&gt;1251 -->
<g id="edge20" class="edge"><title>1248&#45;&gt;1251</title>
<path fill="none" stroke="black" stroke-width="2" d="M302.71,-371.96C330.664,-357.189 367.33,-337.814 395.285,-323.042"/>
</g>
<!-- 1240 -->
<g id="node3" class="node"><title>1240</title>
<polygon fill="#fff7fb" stroke="black" points="149,-106 1,-106 1,-62 149,-62 149,-106"/>
<text text-anchor="middle" x="75" y="-89.4" font-family="Times Roman,serif" font-size="14.00">Timmy Flatley DDS</text>
<text text-anchor="middle" x="75" y="-71.4" font-family="Times Roman,serif" font-size="14.00">Dante Eichmann</text>
</g>
<!-- 1250 -->
<g id="node4" class="node"><title>1250</title>
<polygon fill="#ece7f2" stroke="black" points="335,-106 187,-106 187,-62 335,-62 335,-106"/>
<text text-anchor="middle" x="261" y="-89.4" font-family="Times Roman,serif" font-size="14.00">Wallace Pouros</text>
<text text-anchor="middle" x="261" y="-71.4" font-family="Times Roman,serif" font-size="14.00">Timmy Flatley DDS</text>
</g>
<!-- 1240&#45;&gt;1250 -->
<g id="edge4" class="edge"><title>1240&#45;&gt;1250</title>
<path fill="none" stroke="black" stroke-width="2" d="M149.582,-84C161.71,-84 174.273,-84 186.402,-84"/>
</g>
<!-- 1252 -->
<g id="node14" class="node"><title>1252</title>
<polygon fill="#d0d1e6" stroke="black" points="497,-199 377,-199 377,-155 497,-155 497,-199"/>
<text text-anchor="middle" x="437" y="-182.4" font-family="Times Roman,serif" font-size="14.00">Wallace Pouros</text>
<text text-anchor="middle" x="437" y="-164.4" font-family="Times Roman,serif" font-size="14.00">Eryn Wuckert</text>
</g>
<!-- 1250&#45;&gt;1252 -->
<g id="edge24" class="edge"><title>1250&#45;&gt;1252</title>
<path fill="none" stroke="black" stroke-width="2" d="M302.71,-106.04C330.664,-120.811 367.33,-140.186 395.285,-154.958"/>
</g>
<!-- 1241 -->
<g id="node5" class="node"><title>1241</title>
<polygon fill="#fff7fb" stroke="black" points="136,-230 14,-230 14,-186 136,-186 136,-230"/>
<text text-anchor="middle" x="75" y="-213.4" font-family="Times Roman,serif" font-size="14.00">Talia Lynch</text>
<text text-anchor="middle" x="75" y="-195.4" font-family="Times Roman,serif" font-size="14.00">Harrison Bruen</text>
</g>
<!-- 1249 -->
<g id="node6" class="node"><title>1249</title>
<polygon fill="#ece7f2" stroke="black" points="322,-199 200,-199 200,-155 322,-155 322,-199"/>
<text text-anchor="middle" x="261" y="-182.4" font-family="Times Roman,serif" font-size="14.00">Eryn Wuckert</text>
<text text-anchor="middle" x="261" y="-164.4" font-family="Times Roman,serif" font-size="14.00">Harrison Bruen</text>
</g>
<!-- 1241&#45;&gt;1249 -->
<g id="edge6" class="edge"><title>1241&#45;&gt;1249</title>
<path fill="none" stroke="black" stroke-width="2" d="M136.161,-197.807C156.596,-194.401 179.364,-190.606 199.802,-187.2"/>
</g>
<!-- 1249&#45;&gt;1252 -->
<g id="edge22" class="edge"><title>1249&#45;&gt;1252</title>
<path fill="none" stroke="black" stroke-width="2" d="M322.062,-177C339.635,-177 358.795,-177 376.343,-177"/>
</g>
<!-- 1242 -->
<g id="node7" class="node"><title>1242</title>
<polygon fill="#fff7fb" stroke="black" points="139,-354 11,-354 11,-310 139,-310 139,-354"/>
<text text-anchor="middle" x="75" y="-337.4" font-family="Times Roman,serif" font-size="14.00">First User</text>
<text text-anchor="middle" x="75" y="-319.4" font-family="Times Roman,serif" font-size="14.00">Adrianna Lemke</text>
</g>
<!-- 1247 -->
<g id="node8" class="node"><title>1247</title>
<polygon fill="#ece7f2" stroke="black" points="302,-323 220,-323 220,-279 302,-279 302,-323"/>
<text text-anchor="middle" x="261" y="-306.4" font-family="Times Roman,serif" font-size="14.00">First User</text>
<text text-anchor="middle" x="261" y="-288.4" font-family="Times Roman,serif" font-size="14.00">Foo User</text>
</g>
<!-- 1242&#45;&gt;1247 -->
<g id="edge8" class="edge"><title>1242&#45;&gt;1247</title>
<path fill="none" stroke="black" stroke-width="2" d="M139.011,-321.332C165.597,-316.901 195.695,-311.884 219.343,-307.943"/>
</g>
<!-- 1247&#45;&gt;1251 -->
<g id="edge18" class="edge"><title>1247&#45;&gt;1251</title>
<path fill="none" stroke="black" stroke-width="2" d="M302.71,-301C323.446,-301 348.978,-301 372.19,-301"/>
</g>
<!-- 1243 -->
<g id="node9" class="node"><title>1243</title>
<polygon fill="#fff7fb" stroke="black" points="137,-44 13,-44 13,-2.13163e-14 137,-7.10543e-15 137,-44"/>
<text text-anchor="middle" x="75" y="-27.4" font-family="Times Roman,serif" font-size="14.00">Laila Morissette</text>
<text text-anchor="middle" x="75" y="-9.4" font-family="Times Roman,serif" font-size="14.00">Wallace Pouros</text>
</g>
<!-- 1243&#45;&gt;1250 -->
<g id="edge10" class="edge"><title>1243&#45;&gt;1250</title>
<path fill="none" stroke="black" stroke-width="2" d="M137.712,-42.9039C156.063,-49.0209 176.18,-55.7265 194.743,-61.9143"/>
</g>
<!-- 1244 -->
<g id="node10" class="node"><title>1244</title>
<polygon fill="#fff7fb" stroke="black" points="134,-416 16,-416 16,-372 134,-372 134,-416"/>
<text text-anchor="middle" x="75" y="-399.4" font-family="Times Roman,serif" font-size="14.00">Amely Parisian</text>
<text text-anchor="middle" x="75" y="-381.4" font-family="Times Roman,serif" font-size="14.00">Kaela Langosh</text>
</g>
<!-- 1244&#45;&gt;1248 -->
<g id="edge12" class="edge"><title>1244&#45;&gt;1248</title>
<path fill="none" stroke="black" stroke-width="2" d="M134.107,-394C153.893,-394 176.049,-394 196.243,-394"/>
</g>
<!-- 1245 -->
<g id="node11" class="node"><title>1245</title>
<polygon fill="#fff7fb" stroke="black" points="149,-168 1,-168 1,-124 149,-124 149,-168"/>
<text text-anchor="middle" x="75" y="-151.4" font-family="Times Roman,serif" font-size="14.00">Eryn Wuckert</text>
<text text-anchor="middle" x="75" y="-133.4" font-family="Times Roman,serif" font-size="14.00">Fatima Stiedemann</text>
</g>
<!-- 1245&#45;&gt;1249 -->
<g id="edge14" class="edge"><title>1245&#45;&gt;1249</title>
<path fill="none" stroke="black" stroke-width="2" d="M149.582,-158.43C166.258,-161.21 183.757,-164.126 199.817,-166.803"/>
</g>
<!-- 1246 -->
<g id="node12" class="node"><title>1246</title>
<polygon fill="#fff7fb" stroke="black" points="136,-292 14,-292 14,-248 136,-248 136,-292"/>
<text text-anchor="middle" x="75" y="-275.4" font-family="Times Roman,serif" font-size="14.00">Clint Rodriguez</text>
<text text-anchor="middle" x="75" y="-257.4" font-family="Times Roman,serif" font-size="14.00">Foo User</text>
</g>
<!-- 1246&#45;&gt;1247 -->
<g id="edge16" class="edge"><title>1246&#45;&gt;1247</title>
<path fill="none" stroke="black" stroke-width="2" d="M136.161,-280.193C163.479,-284.746 194.965,-289.994 219.481,-294.08"/>
</g>
<!-- 1253 -->
<g id="node15" class="node"><title>1253</title>
<polygon fill="#a6bddb" stroke="black" points="667,-261 539,-261 539,-217 667,-217 667,-261"/>
<text text-anchor="middle" x="603" y="-244.4" font-family="Times Roman,serif" font-size="14.00">Dr. Orval Legros</text>
<text text-anchor="middle" x="603" y="-226.4" font-family="Times Roman,serif" font-size="14.00">Eryn Wuckert</text>
</g>
<!-- 1251&#45;&gt;1253 -->
<g id="edge26" class="edge"><title>1251&#45;&gt;1253</title>
<path fill="none" stroke="black" stroke-width="2" d="M495.993,-278.967C511.555,-273.154 528.35,-266.881 543.918,-261.067"/>
</g>
<!-- 1252&#45;&gt;1253 -->
<g id="edge28" class="edge"><title>1252&#45;&gt;1253</title>
<path fill="none" stroke="black" stroke-width="2" d="M495.993,-199.033C511.555,-204.846 528.35,-211.119 543.918,-216.933"/>
</g>
</g>
</svg>
