<?xml version="1.0" encoding="UTF-8" standalone="no"?>
<!DOCTYPE svg PUBLIC "-//W3C//DTD SVG 1.1//EN"
 "http://www.w3.org/Graphics/SVG/1.1/DTD/svg11.dtd">
<!-- Generated by graphviz version 2.26.3 (20100126.1600)
 -->
<!-- Title: _anonymous_0 Pages: 1 -->
<svg width="716pt" height="512pt"
 viewBox="0.00 0.00 716.00 512.00" xmlns="http://www.w3.org/2000/svg" xmlns:xlink="http://www.w3.org/1999/xlink">
<g id="graph1" class="graph" transform="scale(1 1) rotate(0) translate(4 508)">
<title>_anonymous_0</title>
<polygon fill="white" stroke="white" points="-4,5 -4,-508 713,-508 713,5 -4,5"/>
<text text-anchor="middle" x="354" y="-487.4" font-family="Times Roman,serif" font-size="14.00">AI Sumo 2</text>
<!-- 1269 -->
<g id="node1" class="node"><title>1269</title>
<polygon fill="#fff7fb" stroke="black" points="139,-478 11,-478 11,-434 139,-434 139,-478"/>
<text text-anchor="middle" x="75" y="-461.4" font-family="Times Roman,serif" font-size="14.00">Foo User</text>
<text text-anchor="middle" x="75" y="-443.4" font-family="Times Roman,serif" font-size="14.00">Dr. Orval Legros</text>
</g>
<!-- 1279 -->
<g id="node2" class="node"><title>1279</title>
<polygon fill="#ece7f2" stroke="black" points="325,-416 197,-416 197,-372 325,-372 325,-416"/>
<text text-anchor="middle" x="261" y="-399.4" font-family="Times Roman,serif" font-size="14.00">Laila Morissette</text>
<text text-anchor="middle" x="261" y="-381.4" font-family="Times Roman,serif" font-size="14.00">Dr. Orval Legros</text>
</g>
<!-- 1269&#45;&gt;1279 -->
<g id="edge2" class="edge"><title>1269&#45;&gt;1279</title>
<path fill="none" stroke="black" stroke-width="2" d="M139.532,-434.489C157.894,-428.369 177.894,-421.702 196.267,-415.578"/>
</g>
<!-- 1282 -->
<g id="node14" class="node"><title>1282</title>
<polygon fill="#d0d1e6" stroke="black" points="509,-323 385,-323 385,-279 509,-279 509,-323"/>
<text text-anchor="middle" x="447" y="-306.4" font-family="Times Roman,serif" font-size="14.00">Laila Morissette</text>
<text text-anchor="middle" x="447" y="-288.4" font-family="Times Roman,serif" font-size="14.00">Kaela Langosh</text>
</g>
<!-- 1279&#45;&gt;1282 -->
<g id="edge22" class="edge"><title>1279&#45;&gt;1282</title>
<path fill="none" stroke="black" stroke-width="2" d="M305.079,-371.96C334.622,-357.189 373.371,-337.814 402.915,-323.042"/>
</g>
<!-- 1270 -->
<g id="node3" class="node"><title>1270</title>
<polygon fill="#fff7fb" stroke="black" points="149,-106 1,-106 1,-62 149,-62 149,-106"/>
<text text-anchor="middle" x="75" y="-89.4" font-family="Times Roman,serif" font-size="14.00">Adrianna Lemke</text>
<text text-anchor="middle" x="75" y="-71.4" font-family="Times Roman,serif" font-size="14.00">Fatima Stiedemann</text>
</g>
<!-- 1277 -->
<g id="node4" class="node"><title>1277</title>
<polygon fill="#ece7f2" stroke="black" points="335,-106 187,-106 187,-62 335,-62 335,-106"/>
<text text-anchor="middle" x="261" y="-89.4" font-family="Times Roman,serif" font-size="14.00">First User</text>
<text text-anchor="middle" x="261" y="-71.4" font-family="Times Roman,serif" font-size="14.00">Fatima Stiedemann</text>
</g>
<!-- 1270&#45;&gt;1277 -->
<g id="edge4" class="edge"><title>1270&#45;&gt;1277</title>
<path fill="none" stroke="black" stroke-width="2" d="M149.582,-84C161.71,-84 174.273,-84 186.402,-84"/>
</g>
<!-- 1281 -->
<g id="node13" class="node"><title>1281</title>
<polygon fill="#d0d1e6" stroke="black" points="521,-199 373,-199 373,-155 521,-155 521,-199"/>
<text text-anchor="middle" x="447" y="-182.4" font-family="Times Roman,serif" font-size="14.00">Fatima Stiedemann</text>
<text text-anchor="middle" x="447" y="-164.4" font-family="Times Roman,serif" font-size="14.00">Clint Rodriguez</text>
</g>
<!-- 1277&#45;&gt;1281 -->
<g id="edge18" class="edge"><title>1277&#45;&gt;1281</title>
<path fill="none" stroke="black" stroke-width="2" d="M305.079,-106.04C334.622,-120.811 373.371,-140.186 402.915,-154.958"/>
</g>
<!-- 1271 -->
<g id="node5" class="node"><title>1271</title>
<polygon fill="#fff7fb" stroke="black" points="133,-354 17,-354 17,-310 133,-310 133,-354"/>
<text text-anchor="middle" x="75" y="-337.4" font-family="Times Roman,serif" font-size="14.00">Eryn Wuckert</text>
<text text-anchor="middle" x="75" y="-319.4" font-family="Times Roman,serif" font-size="14.00">Kaela Langosh</text>
</g>
<!-- 1280 -->
<g id="node6" class="node"><title>1280</title>
<polygon fill="#ece7f2" stroke="black" points="321,-323 201,-323 201,-279 321,-279 321,-323"/>
<text text-anchor="middle" x="261" y="-306.4" font-family="Times Roman,serif" font-size="14.00">Wallace Pouros</text>
<text text-anchor="middle" x="261" y="-288.4" font-family="Times Roman,serif" font-size="14.00">Kaela Langosh</text>
</g>
<!-- 1271&#45;&gt;1280 -->
<g id="edge6" class="edge"><title>1271&#45;&gt;1280</title>
<path fill="none" stroke="black" stroke-width="2" d="M133.086,-322.319C154.511,-318.748 178.828,-314.695 200.464,-311.089"/>
</g>
<!-- 1280&#45;&gt;1282 -->
<g id="edge24" class="edge"><title>1280&#45;&gt;1282</title>
<path fill="none" stroke="black" stroke-width="2" d="M321.646,-301C341.682,-301 364.008,-301 384.202,-301"/>
</g>
<!-- 1272 -->
<g id="node7" class="node"><title>1272</title>
<polygon fill="#fff7fb" stroke="black" points="135,-292 15,-292 15,-248 135,-248 135,-292"/>
<text text-anchor="middle" x="75" y="-275.4" font-family="Times Roman,serif" font-size="14.00">Mariela Kling</text>
<text text-anchor="middle" x="75" y="-257.4" font-family="Times Roman,serif" font-size="14.00">Wallace Pouros</text>
</g>
<!-- 1272&#45;&gt;1280 -->
<g id="edge8" class="edge"><title>1272&#45;&gt;1280</title>
<path fill="none" stroke="black" stroke-width="2" d="M135.646,-280.108C156.424,-283.571 179.664,-287.444 200.436,-290.906"/>
</g>
<!-- 1273 -->
<g id="node8" class="node"><title>1273</title>
<polygon fill="#fff7fb" stroke="black" points="149,-230 1,-230 1,-186 149,-186 149,-230"/>
<text text-anchor="middle" x="75" y="-213.4" font-family="Times Roman,serif" font-size="14.00">Timmy Flatley DDS</text>
<text text-anchor="middle" x="75" y="-195.4" font-family="Times Roman,serif" font-size="14.00">Dante Eichmann</text>
</g>
<!-- 1278 -->
<g id="node9" class="node"><title>1278</title>
<polygon fill="#ece7f2" stroke="black" points="326,-199 196,-199 196,-155 326,-155 326,-199"/>
<text text-anchor="middle" x="261" y="-182.4" font-family="Times Roman,serif" font-size="14.00">Clint Rodriguez</text>
<text text-anchor="middle" x="261" y="-164.4" font-family="Times Roman,serif" font-size="14.00">Dante Eichmann</text>
</g>
<!-- 1273&#45;&gt;1278 -->
<g id="edge10" class="edge"><title>1273&#45;&gt;1278</title>
<path fill="none" stroke="black" stroke-width="2" d="M149.582,-195.57C164.742,-193.043 180.582,-190.403 195.403,-187.933"/>
</g>
<!-- 1278&#45;&gt;1281 -->
<g id="edge20" class="edge"><title>1278&#45;&gt;1281</title>
<path fill="none" stroke="black" stroke-width="2" d="M326.577,-177C341.429,-177 357.305,-177 372.496,-177"/>
</g>
<!-- 1274 -->
<g id="node10" class="node"><title>1274</title>
<polygon fill="#fff7fb" stroke="black" points="137,-416 13,-416 13,-372 137,-372 137,-416"/>
<text text-anchor="middle" x="75" y="-399.4" font-family="Times Roman,serif" font-size="14.00">Laila Morissette</text>
<text text-anchor="middle" x="75" y="-381.4" font-family="Times Roman,serif" font-size="14.00">Talia Lynch</text>
</g>
<!-- 1274&#45;&gt;1279 -->
<g id="edge12" class="edge"><title>1274&#45;&gt;1279</title>
<path fill="none" stroke="black" stroke-width="2" d="M137.712,-394C156.59,-394 177.337,-394 196.339,-394"/>
</g>
<!-- 1275 -->
<g id="node11" class="node"><title>1275</title>
<polygon fill="#fff7fb" stroke="black" points="136,-168 14,-168 14,-124 136,-124 136,-168"/>
<text text-anchor="middle" x="75" y="-151.4" font-family="Times Roman,serif" font-size="14.00">Clint Rodriguez</text>
<text text-anchor="middle" x="75" y="-133.4" font-family="Times Roman,serif" font-size="14.00">Amely Parisian</text>
</g>
<!-- 1275&#45;&gt;1278 -->
<g id="edge14" class="edge"><title>1275&#45;&gt;1278</title>
<path fill="none" stroke="black" stroke-width="2" d="M136.161,-156.193C155.114,-159.352 176.073,-162.846 195.32,-166.053"/>
</g>
<!-- 1276 -->
<g id="node12" class="node"><title>1276</title>
<polygon fill="#fff7fb" stroke="black" points="136,-44 14,-44 14,-2.13163e-14 136,-7.10543e-15 136,-44"/>
<text text-anchor="middle" x="75" y="-27.4" font-family="Times Roman,serif" font-size="14.00">First User</text>
<text text-anchor="middle" x="75" y="-9.4" font-family="Times Roman,serif" font-size="14.00">Harrison Bruen</text>
</g>
<!-- 1276&#45;&gt;1277 -->
<g id="edge16" class="edge"><title>1276&#45;&gt;1277</title>
<path fill="none" stroke="black" stroke-width="2" d="M136.161,-42.387C155.008,-48.6694 175.839,-55.6131 194.997,-61.999"/>
</g>
<!-- 1283 -->
<g id="node15" class="node"><title>1283</title>
<polygon fill="#a6bddb" stroke="black" points="707,-261 559,-261 559,-217 707,-217 707,-261"/>
<text text-anchor="middle" x="633" y="-244.4" font-family="Times Roman,serif" font-size="14.00">Fatima Stiedemann</text>
<text text-anchor="middle" x="633" y="-226.4" font-family="Times Roman,serif" font-size="14.00">Kaela Langosh</text>
</g>
<!-- 1281&#45;&gt;1283 -->
<g id="edge26" class="edge"><title>1281&#45;&gt;1283</title>
<path fill="none" stroke="black" stroke-width="2" d="M513.1,-199.033C530.538,-204.846 549.356,-211.119 566.799,-216.933"/>
</g>
<!-- 1282&#45;&gt;1283 -->
<g id="edge28" class="edge"><title>1282&#45;&gt;1283</title>
<path fill="none" stroke="black" stroke-width="2" d="M509.712,-280.096C528.063,-273.979 548.18,-267.273 566.743,-261.086"/>
</g>
</g>
</svg>
