<?xml version="1.0" encoding="UTF-8" standalone="no"?>
<!DOCTYPE svg PUBLIC "-//W3C//DTD SVG 1.1//EN"
 "http://www.w3.org/Graphics/SVG/1.1/DTD/svg11.dtd">
<!-- Generated by graphviz version 2.26.3 (20100126.1600)
 -->
<!-- Title: _anonymous_0 Pages: 1 -->
<svg width="344pt" height="512pt"
 viewBox="0.00 0.00 344.00 512.00" xmlns="http://www.w3.org/2000/svg" xmlns:xlink="http://www.w3.org/1999/xlink">
<g id="graph1" class="graph" transform="scale(1 1) rotate(0) translate(4 508)">
<title>_anonymous_0</title>
<polygon fill="white" stroke="white" points="-4,5 -4,-508 341,-508 341,5 -4,5"/>
<text text-anchor="middle" x="168" y="-487.4" font-family="Times Roman,serif" font-size="14.00">AI Sumo 2</text>
<!-- 1284 -->
<g id="node1" class="node"><title>1284</title>
<polygon fill="#fff7fb" stroke="black" points="149,-106 1,-106 1,-62 149,-62 149,-106"/>
<text text-anchor="middle" x="75" y="-89.4" font-family="Times Roman,serif" font-size="14.00">Fatima Stiedemann</text>
<text text-anchor="middle" x="75" y="-71.4" font-family="Times Roman,serif" font-size="14.00">Dr. Orval Legros</text>
</g>
<!-- 1292 -->
<g id="node2" class="node"><title>1292</title>
<polygon fill="#ece7f2" stroke="black" points="335,-75 187,-75 187,-31 335,-31 335,-75"/>
<text text-anchor="middle" x="261" y="-58.4" font-family="Times Roman,serif" font-size="14.00">Foo User</text>
<text text-anchor="middle" x="261" y="-40.4" font-family="Times Roman,serif" font-size="14.00">Fatima Stiedemann</text>
</g>
<!-- 1284&#45;&gt;1292 -->
<g id="edge2" class="edge"><title>1284&#45;&gt;1292</title>
<path fill="none" stroke="black" stroke-width="2" d="M149.582,-71.5697C161.71,-69.5484 174.273,-67.4545 186.402,-65.4331"/>
</g>
<!-- 1285 -->
<g id="node3" class="node"><title>1285</title>
<polygon fill="#fff7fb" stroke="black" points="136,-230 14,-230 14,-186 136,-186 136,-230"/>
<text text-anchor="middle" x="75" y="-213.4" font-family="Times Roman,serif" font-size="14.00">Talia Lynch</text>
<text text-anchor="middle" x="75" y="-195.4" font-family="Times Roman,serif" font-size="14.00">Clint Rodriguez</text>
</g>
<!-- 1293 -->
<g id="node4" class="node"><title>1293</title>
<polygon fill="#ece7f2" stroke="black" points="322,-199 200,-199 200,-155 322,-155 322,-199"/>
<text text-anchor="middle" x="261" y="-182.4" font-family="Times Roman,serif" font-size="14.00">Clint Rodriguez</text>
<text text-anchor="middle" x="261" y="-164.4" font-family="Times Roman,serif" font-size="14.00">Mariela Kling</text>
</g>
<!-- 1285&#45;&gt;1293 -->
<g id="edge4" class="edge"><title>1285&#45;&gt;1293</title>
<path fill="none" stroke="black" stroke-width="2" d="M136.161,-197.807C156.596,-194.401 179.364,-190.606 199.802,-187.2"/>
</g>
<!-- 1286 -->
<g id="node5" class="node"><title>1286</title>
<polygon fill="#fff7fb" stroke="black" points="149,-354 1,-354 1,-310 149,-310 149,-354"/>
<text text-anchor="middle" x="75" y="-337.4" font-family="Times Roman,serif" font-size="14.00">Timmy Flatley DDS</text>
<text text-anchor="middle" x="75" y="-319.4" font-family="Times Roman,serif" font-size="14.00">Kaela Langosh</text>
</g>
<!-- 1295 -->
<g id="node6" class="node"><title>1295</title>
<polygon fill="#ece7f2" stroke="black" points="335,-323 187,-323 187,-279 335,-279 335,-323"/>
<text text-anchor="middle" x="261" y="-306.4" font-family="Times Roman,serif" font-size="14.00">Adrianna Lemke</text>
<text text-anchor="middle" x="261" y="-288.4" font-family="Times Roman,serif" font-size="14.00">Timmy Flatley DDS</text>
</g>
<!-- 1286&#45;&gt;1295 -->
<g id="edge6" class="edge"><title>1286&#45;&gt;1295</title>
<path fill="none" stroke="black" stroke-width="2" d="M149.582,-319.57C161.71,-317.548 174.273,-315.454 186.402,-313.433"/>
</g>
<!-- 1287 -->
<g id="node7" class="node"><title>1287</title>
<polygon fill="#fff7fb" stroke="black" points="137,-478 13,-478 13,-434 137,-434 137,-478"/>
<text text-anchor="middle" x="75" y="-461.4" font-family="Times Roman,serif" font-size="14.00">Wallace Pouros</text>
<text text-anchor="middle" x="75" y="-443.4" font-family="Times Roman,serif" font-size="14.00">Laila Morissette</text>
</g>
<!-- 1294 -->
<g id="node8" class="node"><title>1294</title>
<polygon fill="#ece7f2" stroke="black" points="323,-447 199,-447 199,-403 323,-403 323,-447"/>
<text text-anchor="middle" x="261" y="-430.4" font-family="Times Roman,serif" font-size="14.00">Laila Morissette</text>
<text text-anchor="middle" x="261" y="-412.4" font-family="Times Roman,serif" font-size="14.00">Amely Parisian</text>
</g>
<!-- 1287&#45;&gt;1294 -->
<g id="edge8" class="edge"><title>1287&#45;&gt;1294</title>
<path fill="none" stroke="black" stroke-width="2" d="M137.712,-445.548C157.223,-442.296 178.73,-438.712 198.244,-435.459"/>
</g>
<!-- 1288 -->
<g id="node9" class="node"><title>1288</title>
<polygon fill="#fff7fb" stroke="black" points="139,-292 11,-292 11,-248 139,-248 139,-292"/>
<text text-anchor="middle" x="75" y="-275.4" font-family="Times Roman,serif" font-size="14.00">First User</text>
<text text-anchor="middle" x="75" y="-257.4" font-family="Times Roman,serif" font-size="14.00">Adrianna Lemke</text>
</g>
<!-- 1288&#45;&gt;1295 -->
<g id="edge10" class="edge"><title>1288&#45;&gt;1295</title>
<path fill="none" stroke="black" stroke-width="2" d="M139.011,-280.668C154.248,-283.208 170.639,-285.94 186.308,-288.551"/>
</g>
<!-- 1289 -->
<g id="node10" class="node"><title>1289</title>
<polygon fill="#fff7fb" stroke="black" points="134,-416 16,-416 16,-372 134,-372 134,-416"/>
<text text-anchor="middle" x="75" y="-399.4" font-family="Times Roman,serif" font-size="14.00">Eryn Wuckert</text>
<text text-anchor="middle" x="75" y="-381.4" font-family="Times Roman,serif" font-size="14.00">Amely Parisian</text>
</g>
<!-- 1289&#45;&gt;1294 -->
<g id="edge12" class="edge"><title>1289&#45;&gt;1294</title>
<path fill="none" stroke="black" stroke-width="2" d="M134.107,-403.851C154.531,-407.255 177.481,-411.08 198.191,-414.532"/>
</g>
<!-- 1290 -->
<g id="node11" class="node"><title>1290</title>
<polygon fill="#fff7fb" stroke="black" points="136,-168 14,-168 14,-124 136,-124 136,-168"/>
<text text-anchor="middle" x="75" y="-151.4" font-family="Times Roman,serif" font-size="14.00">Mariela Kling</text>
<text text-anchor="middle" x="75" y="-133.4" font-family="Times Roman,serif" font-size="14.00">Harrison Bruen</text>
</g>
<!-- 1290&#45;&gt;1293 -->
<g id="edge14" class="edge"><title>1290&#45;&gt;1293</title>
<path fill="none" stroke="black" stroke-width="2" d="M136.161,-156.193C156.596,-159.599 179.364,-163.394 199.802,-166.8"/>
</g>
<!-- 1291 -->
<g id="node12" class="node"><title>1291</title>
<polygon fill="#fff7fb" stroke="black" points="140,-44 10,-44 10,-2.13163e-14 140,-7.10543e-15 140,-44"/>
<text text-anchor="middle" x="75" y="-27.4" font-family="Times Roman,serif" font-size="14.00">Foo User</text>
<text text-anchor="middle" x="75" y="-9.4" font-family="Times Roman,serif" font-size="14.00">Dante Eichmann</text>
</g>
<!-- 1291&#45;&gt;1292 -->
<g id="edge16" class="edge"><title>1291&#45;&gt;1292</title>
<path fill="none" stroke="black" stroke-width="2" d="M140.577,-32.9294C155.429,-35.4048 171.305,-38.0509 186.496,-40.5826"/>
</g>
</g>
</svg>
